<svg xmlns="http://www.w3.org/2000/svg" xmlns:xlink="http://www.w3.org/1999/xlink" version="1.1" x="0px" y="0px" viewBox="0 0 100 125" enable-background="new 0 0 100 100" xml:space="preserve"><path d="M50,27.5c-5.5,0-10,4.5-10,10c0,5,3.7,9.1,8.5,9.9l0,25.1h3l0-1.5H55v-2.5h-3.5l0-1.5H55v-2.5h-3.5l0-17.1  c4.8-0.7,8.5-4.9,8.5-9.9C60,32,55.5,27.5,50,27.5z M50,45c-4.1,0-7.5-3.4-7.5-7.5c0-4.1,3.4-7.5,7.5-7.5s7.5,3.4,7.5,7.5  C57.5,41.6,54.1,45,50,45z"/><text x="0" y="115" fill="#000000" font-size="5px" font-weight="bold" font-family="'Helvetica Neue', Helvetica, Arial-Unicode, Arial, Sans-serif">Created by Guilhem</text><text x="0" y="120" fill="#000000" font-size="5px" font-weight="bold" font-family="'Helvetica Neue', Helvetica, Arial-Unicode, Arial, Sans-serif">from the Noun Project</text></svg>