<svg xmlns="http://www.w3.org/2000/svg" xmlns:xlink="http://www.w3.org/1999/xlink" version="1.1" x="0px" y="0px" viewBox="0 0 100 125" enable-background="new 0 0 100 100" xml:space="preserve"><g><rect x="73.388" y="61.333" transform="matrix(-0.3994 -0.9168 0.9168 -0.3994 48.3166 156.3205)" width="3.954" height="2"/><rect x="64.732" y="70.935" transform="matrix(-0.3994 -0.9168 0.9168 -0.3994 34.2304 166.2955)" width="13.712" height="2"/><rect x="58.723" y="79.858" transform="matrix(-0.3994 -0.9168 0.9168 -0.3994 11.8674 169.491)" width="5.452" height="2"/><rect x="83.41" y="71.181" transform="matrix(0.3992 0.9169 -0.9169 0.3992 117.1143 -34.3592)" width="2.728" height="2"/></g><path d="M77.242,55.843c0.006-0.015,0.015-0.026,0.021-0.041c0.448-1.14,0.426-2.385-0.063-3.508  c-0.729-1.673-2.38-2.753-4.205-2.753c-0.631,0-1.247,0.129-1.829,0.382l-4.241,1.848L50.083,13.114  c-0.552-1.266-1.563-2.242-2.849-2.747c-1.285-0.505-2.691-0.479-3.956,0.072c-1.267,0.551-2.242,1.563-2.748,2.849  c-0.505,1.285-0.479,2.69,0.071,3.956l10.054,23.073c-3.492-3.988-11.396-6.711-20.813-6.711c-12.749,0-22.735,4.989-22.735,11.358  v31.51c0,6.369,9.986,11.358,22.735,11.358c12.75,0,22.737-4.989,22.737-11.358V65.817c0.444,0.282,0.939,0.48,1.462,0.597  l0.823,22.806l0.735,0.179c0.085,0.021,3.055,0.709,7.414,0.709c5.836,0,14.163-1.242,21.391-6.969l0.821-0.674  c2.746-2.337,5.311-5.35,7.486-9.237l0.358-0.642L77.242,55.843z M50.58,76.475c0,5.073-9.497,9.358-20.737,9.358  c-11.24,0-20.735-4.285-20.735-9.358v-5.773c3.529,3.942,11.387,6.627,20.735,6.627c9.35,0,17.208-2.685,20.737-6.627V76.475z   M50.58,65.97c0,5.073-9.497,9.358-20.737,9.358c-11.24,0-20.735-4.285-20.735-9.358v-5.771c3.529,3.942,11.387,6.627,20.735,6.627  c9.35,0,17.208-2.685,20.737-6.627V65.97z M50.58,55.467c0,5.073-9.497,9.358-20.737,9.358c-11.24,0-20.735-4.285-20.735-9.358  v-5.771c3.529,3.942,11.387,6.627,20.735,6.627c9.35,0,17.208-2.685,20.737-6.627V55.467z M29.843,54.322  c-11.24,0-20.735-4.285-20.735-9.358s9.496-9.358,20.735-9.358c11.241,0,20.737,4.286,20.737,9.358S41.083,54.322,29.843,54.322z   M42.436,16.446c-0.338-0.776-0.354-1.638-0.043-2.426c0.31-0.788,0.908-1.408,1.685-1.747c0.776-0.338,1.637-0.354,2.425-0.044  c0.788,0.31,1.408,0.908,1.747,1.685l16.842,38.656l-5.812,2.532L42.436,16.446z M52.567,44.706l4.878,11.196l-4.241,1.848  c-0.222,0.097-0.424,0.221-0.624,0.348V44.964C52.58,44.877,52.571,44.792,52.567,44.706z M52.667,62.983  c-0.038-0.087-0.059-0.178-0.087-0.268v-1.531c0.019-0.06,0.027-0.12,0.051-0.179c0.252-0.643,0.739-1.147,1.372-1.423l17.962-7.826  c0.329-0.144,0.676-0.216,1.03-0.216c1.029,0,1.96,0.609,2.371,1.552c0.275,0.633,0.288,1.335,0.036,1.978  c-0.253,0.642-0.741,1.147-1.374,1.423L56.067,64.32C54.787,64.883,53.219,64.252,52.667,62.983z M84.401,80.569l-5.876-13.486  l-1.834,0.799l6.113,14.03c-3.817,2.959-7.923,4.593-11.747,5.444l-2.036-4.675l-1.834,0.799l1.855,4.261  c-5.67,0.905-10.438,0.213-12.235-0.131l-0.766-21.193c0.28-0.063,0.557-0.146,0.824-0.263l2.328-1.015l5.027,11.536l1.834-0.799  l-5.027-11.536l13.799-6.014c0.465-0.202,0.872-0.489,1.237-0.819l14.539,15.379C88.757,76.041,86.645,78.554,84.401,80.569z"/><text x="0" y="115" fill="#000000" font-size="5px" font-weight="bold" font-family="'Helvetica Neue', Helvetica, Arial-Unicode, Arial, Sans-serif">Created by Brand Mania</text><text x="0" y="120" fill="#000000" font-size="5px" font-weight="bold" font-family="'Helvetica Neue', Helvetica, Arial-Unicode, Arial, Sans-serif">from the Noun Project</text></svg>