<svg xmlns="http://www.w3.org/2000/svg" xmlns:xlink="http://www.w3.org/1999/xlink" version="1.1" x="0px" y="0px" viewBox="0 0 70 87.5" enable-background="new 0 0 70 70" xml:space="preserve"><g><path d="M32.1049232,59.9994545c-12.1884785,0-22.1044922-9.9160156-22.1044922-22.1044922   c0-12.1875,9.9160147-22.1035156,22.1044922-22.1035156s22.1044922,9.9160156,22.1044922,22.1035156   C54.2094154,50.0834389,44.2933998,59.9994545,32.1049232,59.9994545z M32.1049232,17.7914467   c-11.0859394,0-20.1044922,9.0185547-20.1044922,20.1035156c0,11.0859375,9.0185537,20.1044922,20.1044922,20.1044922   s20.1044922-9.0185547,20.1044922-20.1044922C52.2094154,26.8100014,43.1908607,17.7914467,32.1049232,17.7914467z"/><path d="M32.1049232,52.9994545c-8.3291035,0-15.1044941-6.7753906-15.1044941-15.1044922   c0-8.328125,6.7753906-15.1035156,15.1044941-15.1035156c8.328125,0,15.1035156,6.7753906,15.1035156,15.1035156   C47.2084389,46.2240639,40.4330482,52.9994545,32.1049232,52.9994545z M32.1049232,24.7914467   c-7.2255878,0-13.1044941,5.8779297-13.1044941,13.1035156s5.8789063,13.1044922,13.1044941,13.1044922   s13.1035156-5.8789063,13.1035156-13.1044922S39.3305092,24.7914467,32.1049232,24.7914467z"/><path d="M40.2055092,37.8994179c0,4.460022-3.6300049,8.1000366-8.0999756,8.1000366   c-4.4700336,0-8.1100483-3.6400146-8.1100483-8.1000366c0-4.4699707,3.6400146-8.1099854,8.1100483-8.1099854   c1.8699951,0,3.5999756,0.6400146,4.9799805,1.710022l-5.6900043,5.6900024c-0.3900146,0.3899536-0.3900146,1.0199585,0,1.4099731   c0.2000122,0.2000122,0.4500122,0.2999878,0.7100239,0.2999878c0.2599487,0,0.5099487-0.0999756,0.7099609-0.2999878   l5.6799927-5.6799927C39.5654945,34.2994423,40.2055092,36.0294228,40.2055092,37.8994179z"/><path d="M59.7055092,15.8194618l-4.8800049,4.8800049c-0.1900024,0.1900024-0.4400024,0.289978-0.710022,0.289978H50.005497   c-0.5499878,0-1-0.4400024-1-1v-4.1099854c0-0.2600098,0.1099854-0.5200195,0.2900391-0.710022l4.8799438-4.8800049   c0.2900391-0.2799683,0.7200317-0.3699951,1.0900269-0.210022c0.3800049,0.1500244,0.6199951,0.5200195,0.6199951,0.9200439   v3.1099854h3.1099854c0.4100342,0,0.7700195,0.25,0.9299927,0.6199951   C60.0755043,15.0994301,59.9954872,15.5294228,59.7055092,15.8194618z"/><path d="M50.715519,20.6994667L38.4954872,32.9194374c-0.4099731-0.5299683-0.8899536-1-1.4099731-1.4199829l12.210022-12.210022   c0.3899536-0.3900146,1.0299683-0.3900146,1.4199829,0S51.1055336,20.3094521,50.715519,20.6994667z"/></g><text x="0" y="85" fill="#000000" font-size="5px" font-weight="bold" font-family="'Helvetica Neue', Helvetica, Arial-Unicode, Arial, Sans-serif">Created by Vectorstall</text><text x="0" y="90" fill="#000000" font-size="5px" font-weight="bold" font-family="'Helvetica Neue', Helvetica, Arial-Unicode, Arial, Sans-serif">from the Noun Project</text></svg>