<svg xmlns="http://www.w3.org/2000/svg" version="1.1" viewBox="0 0 45 56.25" x="0px" y="0px"><title>database</title><path d="M22.5 2.406c-4.701 0-8.817 0.806-11.705 2.109s-4.461 3.042-4.461 4.89v26.178c0 1.848 1.576 3.589 4.464 4.895s7.002 2.115 11.703 2.115c4.701 0 8.815-0.807 11.703-2.112s4.464-3.044 4.464-4.898v-26.178c0-1.848-1.573-3.586-4.461-4.89s-7.004-2.109-11.705-2.109zM22.5 3.378c4.377 0 8.097 0.727 10.765 1.808 1.334 0.541 2.408 1.168 3.175 1.867s1.252 1.499 1.252 2.36c0 0.861-0.485 1.66-1.252 2.36s-1.841 1.326-3.175 1.867c-2.668 1.082-6.388 1.811-10.765 1.811s-8.097-0.729-10.765-1.811c-1.334-0.541-2.408-1.168-3.175-1.867s-1.252-1.499-1.252-2.36c0-0.861 0.485-1.661 1.252-2.36s1.841-1.326 3.175-1.867c2.668-1.082 6.388-1.808 10.765-1.808zM37.692 11.994v6.139c0 0.859-0.485 1.656-1.252 2.354s-1.841 1.326-3.175 1.867c-2.668 1.083-6.388 1.814-10.765 1.814s-8.097-0.727-10.765-1.808c-1.334-0.541-2.408-1.168-3.175-1.867s-1.252-1.499-1.252-2.36v-6.134l0.892 0.735c2.621 2.163 7.916 3.681 14.3 3.681s11.686-1.519 14.297-3.681zM37.692 20.722v6.136c0 0.859-0.485 1.656-1.252 2.354s-1.841 1.328-3.175 1.87c-2.668 1.083-6.388 1.814-10.765 1.814s-8.097-0.729-10.765-1.811c-1.334-0.541-2.408-1.168-3.175-1.867s-1.252-1.499-1.252-2.36v-6.131l0.892 0.735c2.621 2.163 7.916 3.681 14.3 3.681s11.686-1.519 14.297-3.681zM37.692 29.439v6.139c0 0.861-0.485 1.661-1.252 2.36s-1.841 1.326-3.175 1.867c-2.668 1.082-6.388 1.808-10.765 1.808s-8.097-0.727-10.765-1.808c-1.334-0.541-2.408-1.168-3.175-1.867s-1.252-1.499-1.252-2.36v-6.134l0.892 0.735c2.621 2.163 7.916 3.681 14.3 3.681s11.686-1.519 14.297-3.681z"/><text x="0" y="60" fill="#000000" font-size="5px" font-weight="bold" font-family="'Helvetica Neue', Helvetica, Arial-Unicode, Arial, Sans-serif">Created by shuai tawf</text><text x="0" y="65" fill="#000000" font-size="5px" font-weight="bold" font-family="'Helvetica Neue', Helvetica, Arial-Unicode, Arial, Sans-serif">from the Noun Project</text></svg>