<svg xmlns="http://www.w3.org/2000/svg" xmlns:xlink="http://www.w3.org/1999/xlink" version="1.1" x="0px" y="0px" viewBox="0 0 32 40" enable-background="new 0 0 32 32" xml:space="preserve"><g><g><polygon points="14.06,9.353 16,7.945 17.94,9.353 17.199,7.073 19.14,5.663 16.741,5.663 16,3.382 15.259,5.663 12.86,5.663     14.801,7.073   "/><polygon points="6.661,12.353 8.601,10.945 10.541,12.352 9.8,10.073 11.74,8.663 9.342,8.663 8.601,6.382 7.859,8.663     5.461,8.663 7.401,10.073   "/><polygon points="21.459,12.353 23.399,10.945 25.339,12.352 24.599,10.073 26.539,8.663 24.14,8.663 23.399,6.382 22.658,8.663     20.26,8.663 22.2,10.073   "/><path d="M16,21c2.757,0,5-2.243,5-5s-2.243-5-5-5s-5,2.243-5,5S13.243,21,16,21z"/><polygon points="7.8,17.028 9.74,15.618 7.342,15.618 6.601,13.337 5.859,15.618 3.461,15.618 5.401,17.028 4.661,19.308     6.601,17.9 8.541,19.307   "/><polygon points="28.539,15.336 26.14,15.336 25.399,13.055 24.658,15.336 22.26,15.336 24.2,16.746 23.459,19.025 25.399,17.618     27.339,19.024 26.599,16.746   "/><path d="M16,22c-5.905,0-8,2.693-8,5v1h16v-1C24,24.693,21.905,22,16,22z"/></g></g><text x="0" y="47" fill="#000000" font-size="5px" font-weight="bold" font-family="'Helvetica Neue', Helvetica, Arial-Unicode, Arial, Sans-serif">Created by Ralf Schmitzer</text><text x="0" y="52" fill="#000000" font-size="5px" font-weight="bold" font-family="'Helvetica Neue', Helvetica, Arial-Unicode, Arial, Sans-serif">from the Noun Project</text></svg>