<svg xmlns="http://www.w3.org/2000/svg" xmlns:xlink="http://www.w3.org/1999/xlink" version="1.1" viewBox="0 0 96 120" x="0px" y="0px"><path d="M44 84c-10.512 0-20.472-4.58-27.328-12.556-0.72-0.844-0.624-2.108 0.216-2.828 0.84-0.716 2.1-0.624 2.82 0.22 6.092 7.092 14.948 11.164 24.292 11.164 4.74 0 9.296-1.008 13.556-3 1-0.46 2.188-0.032 2.656 0.968s0.040 2.188-0.96 2.656c-4.796 2.244-9.924 3.376-15.252 3.376z" fill="#000000"/><path d="M30 50c-5.512 0-10-4.488-10-10s4.488-10 10-10 10 4.492 10 10-4.488 10-10 10zM30 34c-3.308 0-6 2.692-6 6s2.692 6 6 6 6-2.688 6-6-2.692-6-6-6z" fill="#000000"/><path d="M58 50c-5.512 0-10-4.488-10-10s4.488-10 10-10 10 4.492 10 10-4.488 10-10 10zM58 34c-3.308 0-6 2.692-6 6s2.692 6 6 6 6-2.688 6-6-2.692-6-6-6z" fill="#000000"/><path d="M28 72h-12c-1.104 0-2-0.896-2-2 0-1.1 0.896-2 2-2h12c1.104 0 2 0.9 2 2 0 1.104-0.896 2-2 2z" fill="#000000"/><path d="M44 96c-24.26 0-44-19.74-44-44 0-24.256 19.74-44 44-44 24.256 0 44 19.74 44 44s-19.744 44-44 44zM44 12c-22.056 0-40 17.948-40 40 0 22.056 17.944 40 40 40s40-17.944 40-40c0-22.052-17.944-40-40-40z" fill="#000000"/><path d="M94 56h-6c-1.1 0-2-0.896-2-2 0-1.1 0.9-2 2-2h4v-4c0-17.48-3.828-29.432-3.868-29.552-0.34-1.048 0.236-2.176 1.28-2.52 1.068-0.336 2.18 0.236 2.524 1.284 0.164 0.512 4.064 12.684 4.064 30.792v6c0 1.1-0.9 1.996-2 1.996z" fill="#000000"/><path d="M89.684 19.844c-0.716 0-2.096-0.132-3.348-1-1.072-0.74-2.336-2.22-2.336-5.092v-11.752c0-1.104 0.9-2 2-2h8c1.1 0 2 0.896 2 2v11.416c0 4.744-3.072 6.424-5.696 6.424-0.040 0-0.128-0.004-0.228-0.008-0.096 0.008-0.228 0.012-0.392 0.012zM88 4v9.752c0 0.92 0.208 1.528 0.616 1.812 0.368 0.252 0.868 0.284 1.068 0.284v2l0.132-2.004c0.14-0.012 0.316-0.012 0.448 0 0.18 0 0.672-0.024 1.040-0.292 0.58-0.412 0.696-1.388 0.696-2.136v-9.416h-4z" fill="#000000"/><path d="M90.036 19.832c-3.112 0-10.012-1.872-13.8-8.964-0.516-0.976-0.148-2.184 0.828-2.704 0.968-0.516 2.18-0.16 2.704 0.824 3 5.616 8.428 6.848 10.268 6.848 1.104 0 2 0.896 2 2s-0.896 1.996-2 1.996z" fill="#000000"/><text x="0" y="111" fill="#000000" font-size="5px" font-weight="bold" font-family="'Helvetica Neue', Helvetica, Arial-Unicode, Arial, Sans-serif">Created by iconsmind.com</text><text x="0" y="116" fill="#000000" font-size="5px" font-weight="bold" font-family="'Helvetica Neue', Helvetica, Arial-Unicode, Arial, Sans-serif">from the Noun Project</text></svg>