<svg xmlns="http://www.w3.org/2000/svg" xmlns:xlink="http://www.w3.org/1999/xlink" version="1.1" x="0px" y="0px" viewBox="0 0 66 82.5" enable-background="new 0 0 66 66" xml:space="preserve"><g><path d="M42.9,59h-2.6c-0.3-1-0.4-1.9-0.2-2.8H25.6c0.3,1,0.3,1.9,0,2.8h-2.6c-2.9,0-5.4,2.1-6,4.9c-0.1,0.3,0,0.6,0.2,0.8   c0.2,0.2,0.5,0.4,0.8,0.4h30c0.3,0,0.6-0.1,0.8-0.4C49,64.6,49,64.3,49,64C48.4,61.1,45.8,59,42.9,59z"/><path d="M15.4,25.9l5.6-5.6l5.7,4.5c0.4,0.3,1.1,0.3,1.4-0.2l6.2-8.5c0.3-0.4,0.2-1.1-0.2-1.4c-0.5-0.3-1.1-0.2-1.4,0.2l-5.6,7.7   l-5.6-4.4c-0.4-0.3-1-0.3-1.3,0.1L14,24.5c-0.4,0.4-0.4,1,0,1.4C14.4,26.3,15,26.3,15.4,25.9z"/><path d="M38.1,38h-3.5V24.6c0-0.5-0.5-1-1-1c-0.5,0-1,0.5-1,1V38h-4.2v-5.4c0-0.6-0.5-1-1-1c-0.6,0-1,0.4-1,1V38h-4.2v-9.2   c0-0.5-0.5-1-1-1c-0.6,0-1,0.5-1,1V38h-4.2v-5.4c0-0.6-0.4-1-1-1c-0.6,0-1,0.4-1,1V38h-2.8V10.1c0-0.6-0.5-1-1-1c-0.5,0-1,0.4-1,1   V39c0,0.5,0.5,1,1,1h28c0.6,0,1-0.5,1-1S38.7,38,38.1,38z"/><path d="M48.8,9.1v8.3h8C56.6,13,53.1,9.5,48.8,9.1z"/><path d="M52.9,31.9H42.8c-0.6,0-1,0.5-1,1c0,0.6,0.4,1,1,1h10.2c0.6,0,1-0.4,1-1C53.9,32.3,53.5,31.9,52.9,31.9z"/><path d="M46.8,18.4V9.1c-4.5,0.5-8,4.3-8,9c0,5,4.1,9.1,9,9.1c4.5,0,8.3-3.4,9-7.7h-9C47.3,19.4,46.8,18.9,46.8,18.4z"/><path d="M52.9,38.1H42.8c-0.6,0-1,0.5-1,1c0,0.6,0.4,1,1,1h10.2c0.6,0,1-0.4,1-1C53.9,38.5,53.5,38.1,52.9,38.1z"/><path d="M61.3,0.8H4.7C2.6,0.8,1,2.5,1,4.6v45.9c0,2.1,1.6,3.8,3.7,3.8h56.7c2,0,3.7-1.7,3.7-3.8V4.6C65,2.5,63.3,0.8,61.3,0.8z    M63,43.9H3V4.6c0-1,0.8-1.8,1.7-1.8h56.7c0.9,0,1.7,0.8,1.7,1.8V43.9z"/></g><text x="0" y="81" fill="#000000" font-size="5px" font-weight="bold" font-family="'Helvetica Neue', Helvetica, Arial-Unicode, Arial, Sans-serif">Created by ProSymbols</text><text x="0" y="86" fill="#000000" font-size="5px" font-weight="bold" font-family="'Helvetica Neue', Helvetica, Arial-Unicode, Arial, Sans-serif">from the Noun Project</text></svg>