<svg xmlns="http://www.w3.org/2000/svg" data-name="Layer 1" viewBox="0 0 100 125" x="0px" y="0px"><title>database, data, big data, server, server</title><path d="M50,92c18.39,0,37-4.12,37-12V20C87,12.12,68.39,8,50,8S13,12.12,13,20V80C13,87.88,31.61,92,50,92Zm0-80c21.67,0,33,5.21,33,8s-11.33,8-33,8-33-5.21-33-8S28.33,12,50,12ZM17,25.75C23.45,29.87,36.79,32,50,32s26.55-2.13,33-6.25V40c0,2.79-11.33,8-33,8s-33-5.21-33-8Zm0,20C23.45,49.87,36.79,52,50,52s26.55-2.13,33-6.25V60c0,2.79-11.33,8-33,8s-33-5.21-33-8Zm0,20C23.45,69.87,36.79,72,50,72s26.55-2.13,33-6.25V80c0,2.79-11.33,8-33,8s-33-5.21-33-8Z"/><circle cx="72" cy="77" r="3"/><circle cx="72" cy="57" r="3"/><circle cx="72" cy="37" r="3"/><text x="0" y="115" fill="#000000" font-size="5px" font-weight="bold" font-family="'Helvetica Neue', Helvetica, Arial-Unicode, Arial, Sans-serif">Created by Bernar  Novalyi</text><text x="0" y="120" fill="#000000" font-size="5px" font-weight="bold" font-family="'Helvetica Neue', Helvetica, Arial-Unicode, Arial, Sans-serif">from the Noun Project</text></svg>