<svg xmlns="http://www.w3.org/2000/svg" xmlns:xlink="http://www.w3.org/1999/xlink" version="1.1" x="0px" y="0px" viewBox="0 0 60 75" enable-background="new 0 0 60 60" xml:space="preserve"><path d="M13.6513672,27.902832h17.2929688c0.5527344,0,1-0.4472656,1-1s-0.4472656-1-1-1H13.6513672c-0.5527344,0-1,0.4472656-1,1  S13.0986328,27.902832,13.6513672,27.902832z"/><path d="M45.640625,27.6108398c0.1904297,0.1904297,0.4404297,0.2900391,0.7099609,0.2900391  s0.5195313-0.0996094,0.7001953-0.2900391c0.0996094-0.0996094,0.1699219-0.2001953,0.2197266-0.3203125  c0.0498047-0.1298828,0.0800781-0.25,0.0800781-0.3896484c0-0.2597656-0.1103516-0.5195313-0.2998047-0.7001953  c-0.3603516-0.3798828-1.0400391-0.3798828-1.4101563,0c-0.1904297,0.1806641-0.2900391,0.4404297-0.2900391,0.7001953  c0,0.1396484,0.0195313,0.2597656,0.0703125,0.3896484C45.4707031,27.4106445,45.5507813,27.5112305,45.640625,27.6108398z"/><path d="M50.1259766,6.1157227H9.8740234C7.7382813,6.1157227,6,7.6791992,6,9.6010742v8.2216797  c0,0.9727783,0.4481812,1.8515625,1.1656494,2.484375C6.4481812,20.9401855,6,21.8190918,6,22.7924805v8.2216797  c0,0.9727783,0.4481812,1.8515625,1.1656494,2.484375C6.4481812,34.1315918,6,35.010498,6,35.9838867v8.2216797  c0,1.9208984,1.7382813,3.484375,3.8740234,3.484375H12.1875v5.1943359c0,0.5527344,0.4472656,1,1,1h9.5058594  c0.5527344,0,1-0.4472656,1-1v-5.1943359h12.6123047v5.1943359c0,0.5527344,0.4472656,1,1,1h9.5058594c0.5527344,0,1-0.4472656,1-1  v-5.1943359h2.3144531C52.2617188,47.6899414,54,46.1264648,54,44.2055664v-8.2216797  c0-0.9733887-0.4481812-1.8522949-1.1656494-2.4853516C53.5518188,32.8657227,54,31.9869385,54,31.0141602v-8.2216797  c0-0.9733887-0.4481812-1.8522949-1.1656494-2.4853516C53.5518188,19.6743164,54,18.7955322,54,17.8227539V9.6010742  C54,7.6791992,52.2617188,6.1157227,50.1259766,6.1157227z M21.6933594,51.8842773H14.1875v-4.1943359h7.5058594V51.8842773z   M45.8115234,51.8842773h-7.5058594v-4.1943359h7.5058594V51.8842773z M52,35.9838867v8.2216797  c0,0.8183594-0.8408203,1.484375-1.8740234,1.484375h-3.3144531h-9.5058594H22.6933594H13.1875H9.8740234  C8.8408203,45.6899414,8,45.0239258,8,44.2055664v-8.2216797c0-0.8193359,0.8408203-1.4853516,1.8740234-1.4853516h40.2519531  C51.1591797,34.4985352,52,35.1645508,52,35.9838867z M52,22.7924805v8.2216797c0,0.8183594-0.8408203,1.484375-1.8740234,1.484375  H9.8740234C8.8408203,32.4985352,8,31.8325195,8,31.0141602v-8.2216797c0-0.8193359,0.8408203-1.4853516,1.8740234-1.4853516  h40.2519531C51.1591797,21.3071289,52,21.9731445,52,22.7924805z M9.8740234,19.3071289  C8.8408203,19.3071289,8,18.6411133,8,17.8227539V9.6010742c0-0.8193359,0.8408203-1.4853516,1.8740234-1.4853516h40.2519531  C51.1591797,8.1157227,52,8.7817383,52,9.6010742v8.2216797c0,0.8183594-0.8408203,1.484375-1.8740234,1.484375H9.8740234z"/><path d="M30.9443359,12.7114258H13.6513672c-0.5527344,0-1,0.4472656-1,1s0.4472656,1,1,1h17.2929688c0.5527344,0,1-0.4472656,1-1  S31.4970703,12.7114258,30.9443359,12.7114258z"/><path d="M45.9609375,12.7905273c-0.1201172,0.0507813-0.2304688,0.1201172-0.3203125,0.2099609  c-0.1904297,0.1904297-0.2900391,0.4501953-0.2900391,0.7099609c0,0.2607422,0.0996094,0.5205078,0.2900391,0.7099609  c0.0996094,0.0908203,0.2001953,0.1601563,0.3300781,0.2109375c0.1201172,0.0498047,0.2402344,0.0791016,0.3798828,0.0791016  c0.1298828,0,0.2597656-0.0292969,0.3798828-0.0791016c0.1201172-0.0507813,0.2304688-0.1201172,0.3203125-0.2109375  c0.1894531-0.1894531,0.2998047-0.4394531,0.2998047-0.7099609c0-0.2597656-0.1103516-0.5195313-0.2998047-0.7099609  C46.7802734,12.7211914,46.3310547,12.6313477,45.9609375,12.7905273z"/><path d="M40.6708984,13.3305664c-0.0205078-0.0595703-0.0605469-0.1201172-0.0898438-0.1796875  c-0.0400391-0.0498047-0.0800781-0.0996094-0.1308594-0.1503906c-0.359375-0.3691406-1.0400391-0.3691406-1.4091797,0  c-0.1904297,0.1904297-0.2900391,0.4404297-0.2900391,0.7099609c0,0.2705078,0.0996094,0.5205078,0.2900391,0.7099609  c0.0898438,0.0908203,0.1992188,0.1601563,0.3193359,0.2109375c0.1201172,0.0498047,0.25,0.0791016,0.390625,0.0791016  c0.2597656,0,0.5195313-0.0996094,0.6992188-0.2900391c0.1904297-0.1894531,0.3007813-0.4394531,0.3007813-0.7099609  c0-0.0693359-0.0107422-0.1298828-0.0205078-0.1992188C40.7109375,13.4506836,40.7001953,13.3911133,40.6708984,13.3305664z"/><path d="M39.0410156,27.6108398c0.1894531,0.1904297,0.4394531,0.2900391,0.7099609,0.2900391  c0.2695313,0,0.5195313-0.0996094,0.6992188-0.2900391c0.1005859-0.0996094,0.1699219-0.2001953,0.2207031-0.3203125  c0.0498047-0.1298828,0.0800781-0.25,0.0800781-0.3896484c0-0.2597656-0.1103516-0.5195313-0.3007813-0.7001953  c-0.3691406-0.3798828-1.0400391-0.3798828-1.4091797,0c-0.1904297,0.1806641-0.2900391,0.4404297-0.2900391,0.7001953  c0,0.1396484,0.0195313,0.2597656,0.0693359,0.3896484C38.8701172,27.4106445,38.9501953,27.5112305,39.0410156,27.6108398z"/><path d="M39.7509766,41.0913086c0.2695313,0,0.5195313-0.1005859,0.6992188-0.2900391  c0.1904297-0.1904297,0.3007813-0.4404297,0.3007813-0.7099609c0-0.2607422-0.1103516-0.5205078-0.3007813-0.7001953  c-0.3691406-0.3798828-1.0400391-0.3798828-1.4091797,0c-0.1904297,0.1796875-0.2900391,0.4394531-0.2900391,0.7001953  c0,0.2695313,0.0996094,0.5195313,0.2900391,0.7099609C39.2304688,40.9907227,39.4804688,41.0913086,39.7509766,41.0913086z"/><path d="M13.6513672,41.0942383h17.2929688c0.5527344,0,1-0.4472656,1-1s-0.4472656-1-1-1H13.6513672c-0.5527344,0-1,0.4472656-1,1  S13.0986328,41.0942383,13.6513672,41.0942383z"/><path d="M46.3505859,41.0913086c0.2695313,0,0.5195313-0.1005859,0.7001953-0.2900391  c0.1894531-0.1904297,0.2998047-0.4404297,0.2998047-0.7099609c0-0.2607422-0.1103516-0.5205078-0.2998047-0.7001953  c-0.3603516-0.3798828-1.0400391-0.3798828-1.4101563,0c-0.1904297,0.1796875-0.2900391,0.4394531-0.2900391,0.7001953  c0,0.2695313,0.0996094,0.5195313,0.2900391,0.7099609C45.8310547,40.9907227,46.0810547,41.0913086,46.3505859,41.0913086z"/><text x="0" y="75" fill="#000000" font-size="5px" font-weight="bold" font-family="'Helvetica Neue', Helvetica, Arial-Unicode, Arial, Sans-serif">Created by Graphic Tigers</text><text x="0" y="80" fill="#000000" font-size="5px" font-weight="bold" font-family="'Helvetica Neue', Helvetica, Arial-Unicode, Arial, Sans-serif">from the Noun Project</text></svg>