<svg xmlns="http://www.w3.org/2000/svg" xmlns:xlink="http://www.w3.org/1999/xlink" xmlns:xodm="http://www.corel.com/coreldraw/odm/2003" xml:space="preserve" version="1.1" style="shape-rendering:geometricPrecision;text-rendering:geometricPrecision;image-rendering:optimizeQuality;" viewBox="0 0 163.34 192.39999999999998" x="0px" y="0px" fill-rule="evenodd" clip-rule="evenodd"><defs><style type="text/css">
   
    .fil0 {fill:black;fill-rule:nonzero}
   
  </style></defs><g><path class="fil0" d="M15.84 0l131.67 0c8.7,0 15.84,7.13 15.84,15.84l0 93.33c0,8.7 -7.13,15.84 -15.84,15.84l-43.46 0 1.5 11.41 9.46 0c1.84,0 3.33,1.5 3.33,3.33l0 10.83c0,1.84 -1.5,3.33 -3.33,3.33l-66.67 0c-1.84,0 -3.33,-1.5 -3.33,-3.33l0 -10.83c0,-1.84 1.5,-3.33 3.33,-3.33l9.46 0 1.5 -11.41 -43.46 0c-8.7,0 -15.84,-7.13 -15.84,-15.84l0 -93.33c0,-8.7 7.13,-15.84 15.84,-15.84zm81.5 125l-31.34 0 -1.5 11.41 34.33 0 -1.5 -11.41zm14.33 18.08l-60 0 0 4.16 60 0 0 -4.16zm-105 -52.25l150 0 0 -75c0,-5.06 -4.11,-9.17 -9.17,-9.17l-131.67 0c-5.06,0 -9.17,4.11 -9.17,9.17l0 75zm150 6.67l-150 0 0 11.67c0,5.06 4.11,9.17 9.17,9.17l131.67 0c5.06,0 9.17,-4.11 9.17,-9.17l0 -11.67z"/><path class="fil0" d="M23.34 111.25c-1.84,0 -3.33,-1.5 -3.33,-3.33 0,-1.84 1.5,-3.33 3.33,-3.33l17.5 0c1.84,0 3.33,1.5 3.33,3.33 0,1.84 -1.5,3.33 -3.33,3.33l-17.5 0z"/></g><text x="0" y="168.92" fill="#000000" font-size="5px" font-weight="bold" font-family="'Helvetica Neue', Helvetica, Arial-Unicode, Arial, Sans-serif">Created by Saifurrijal</text><text x="0" y="173.92" fill="#000000" font-size="5px" font-weight="bold" font-family="'Helvetica Neue', Helvetica, Arial-Unicode, Arial, Sans-serif">from the Noun Project</text></svg>