<svg xmlns="http://www.w3.org/2000/svg" xmlns:xlink="http://www.w3.org/1999/xlink" version="1.1" x="0px" y="0px" viewBox="0 0 100 125" style="enable-background:new 0 0 100 100;" xml:space="preserve"><path d="M79.7,41.9v-1.8c0-0.8-0.7-1.5-1.5-1.5H65.6V26.2l7.4-7.4v8.5H69v9h10.5v-9h-3.7V15.9l1.1-1.1L49.1,3.5l-26,13.1l9.6,9.6  v12.4H20.9c-0.8,0-1.5,0.7-1.5,1.5v1.8H13v54.7H87V41.9H79.7z M76.6,33.5H72v-3.1h4.6V33.5z M76.8,41.9v44.2h-21h-0.5l-4.2,3v-42  l5-5.6h20.7V41.9z M49.2,6.7l22.6,9.2l-7.9,7.9c-4.5-2.5-9.5-3.9-14.7-3.9c-5.2,0-10.2,1.3-14.7,3.8l-6.4-6.4L49.2,6.7z M62.6,26.4  V33c-3.8-3-8.6-4.7-13.5-4.7c-4.9,0-9.7,1.7-13.5,4.7v-6.6c4.1-2.3,8.7-3.6,13.5-3.6C53.9,22.9,58.6,24.1,62.6,26.4z M35.3,37.3  c3.5-3.9,8.6-6.1,13.9-6.1c5.3,0,10.3,2.2,13.9,6.1l1.1,1.3h-8.7c-0.4,0-0.8,0.2-1.1,0.5l-4.8,5.3l-4.8-5.3  c-0.3-0.3-0.7-0.5-1.1-0.5h-9.6L35.3,37.3z M22.4,41.5h20.7l5,5.6v42l-2.2-1.6l-1.7-1.2c0,0,0,0,0,0l-0.4-0.3h-0.5h-21V41.9V41.5z   M16,93.6V44.8h3.5v42.7V89h1.5h22l5.8,4.1c0,0,0,0,0,0l0.7,0.5H16z M84,93.6H49.7l0.7-0.5c0,0,0,0,0,0l5.8-4.1h22h1.5v-1.5V44.8H84  V93.6z"/><rect x="25.1" y="45.9" width="18.3" height="2.9"/><rect x="25.1" y="52.5" width="18.3" height="2.9"/><rect x="25.1" y="59.1" width="18.3" height="2.9"/><rect x="25.1" y="65.7" width="18.3" height="2.9"/><rect x="25.1" y="72.3" width="18.3" height="2.9"/><rect x="25.1" y="78.9" width="18.3" height="2.9"/><rect x="54.8" y="45.9" width="18.3" height="2.9"/><rect x="54.5" y="52.5" width="18.3" height="2.9"/><rect x="54.5" y="59.1" width="18.3" height="2.9"/><rect x="54.5" y="65.7" width="18.3" height="2.9"/><rect x="54.5" y="72.3" width="18.3" height="2.9"/><rect x="54.5" y="78.9" width="18.3" height="2.9"/><text x="0" y="115" fill="#000000" font-size="5px" font-weight="bold" font-family="'Helvetica Neue', Helvetica, Arial-Unicode, Arial, Sans-serif">Created by Kahalap</text><text x="0" y="120" fill="#000000" font-size="5px" font-weight="bold" font-family="'Helvetica Neue', Helvetica, Arial-Unicode, Arial, Sans-serif">from the Noun Project</text></svg>