<svg xmlns="http://www.w3.org/2000/svg" xmlns:xlink="http://www.w3.org/1999/xlink" version="1.1" x="0px" y="0px" viewBox="-255 347 100 125" style="enable-background:new -255 347 100 100;" xml:space="preserve"><path d="M-165,357h-80c-2.8,0-5,2.3-5,5v70c0,2.8,2.3,5,5,5h80c2.8,0,5-2.3,5-5v-70C-160,359.3-162.3,357-165,357z M-245,360h80  c1.1,0,2,0.9,2,2v10h-84v-10C-247,360.9-246.1,360-245,360z M-212.2,420.2v-3.9h14.4v3.9H-212.2z M-197.8,423.2v3.9h-14.4v-3.9  H-197.8z M-212.2,406.5v-3.9h14.4v3.9H-212.2z M-197.8,409.5v3.9h-14.4v-3.9H-197.8z M-212.2,399.6v-3.9h14.4v3.9H-212.2z   M-212.2,392.7v-3.9h14.4v3.9H-212.2z M-212.2,385.8v-3.9h14.4v3.9H-212.2z M-215.2,385.8h-14.4v-3.9h14.4V385.8z M-215.2,388.8v3.9  h-14.4v-3.9H-215.2z M-215.2,395.7v3.9h-14.4v-3.9H-215.2z M-215.2,402.6v3.9h-14.4v-3.9H-215.2z M-215.2,409.5v3.9h-14.4v-3.9  H-215.2z M-215.2,416.3v3.9h-14.4v-3.9H-215.2z M-194.8,416.3h14.4v3.9h-14.4V416.3z M-194.8,413.3v-3.9h14.4v3.9H-194.8z   M-194.8,406.5v-3.9h14.4v3.9H-194.8z M-194.8,399.6v-3.9h14.4v3.9H-194.8z M-194.8,392.7v-3.9h14.4v3.9H-194.8z M-194.8,385.8v-3.9  h14.4v3.9H-194.8z M-194.8,378.9V375h14.4v3.9H-194.8z M-197.8,378.9h-14.4V375h14.4V378.9z M-215.2,378.9h-14.4V375h14.4V378.9z   M-232.6,378.9H-247V375h14.4V378.9z M-232.6,381.9v3.9H-247v-3.9H-232.6z M-232.6,388.8v3.9H-247v-3.9H-232.6z M-232.6,395.7v3.9  H-247v-3.9H-232.6z M-232.6,402.6v3.9H-247v-3.9H-232.6z M-232.6,409.5v3.9H-247v-3.9H-232.6z M-232.6,416.3v3.9H-247v-3.9H-232.6z   M-232.6,423.2v3.9H-247v-3.9H-232.6z M-229.6,423.2h14.4v3.9h-14.4V423.2z M-215.2,430.1v3.9h-14.4v-3.9H-215.2z M-212.2,430.1  h14.4v3.9h-14.4V430.1z M-194.8,430.1h14.4v3.9h-14.4V430.1z M-194.8,427.1v-3.9h14.4v3.9H-194.8z M-177.4,423.2h14.4v3.9h-14.4  V423.2z M-177.4,420.2v-3.9h14.4v3.9H-177.4z M-177.4,413.3v-3.9h14.4v3.9H-177.4z M-177.4,406.5v-3.9h14.4v3.9H-177.4z   M-177.4,399.6v-3.9h14.4v3.9H-177.4z M-177.4,392.7v-3.9h14.4v3.9H-177.4z M-177.4,385.8v-3.9h14.4v3.9H-177.4z M-177.4,378.9V375  h14.4v3.9H-177.4z M-247,432v-1.9h14.4v3.9H-245C-246.1,434-247,433.1-247,432z M-165,434h-12.4v-3.9h14.4v1.9  C-163,433.1-163.9,434-165,434z"/><g><path d="M-242,363.5L-242,363.5c-1.4,0-2.5,1.1-2.5,2.5l0,0c0,1.4,1.1,2.5,2.5,2.5l0,0c1.4,0,2.5-1.1,2.5-2.5l0,0   C-239.5,364.6-240.6,363.5-242,363.5z"/></g><g><path d="M-234.5,363.5L-234.5,363.5c-1.4,0-2.5,1.1-2.5,2.5l0,0c0,1.4,1.1,2.5,2.5,2.5l0,0c1.4,0,2.5-1.1,2.5-2.5l0,0   C-232,364.6-233.1,363.5-234.5,363.5z"/></g><g><path d="M-227,363.5L-227,363.5c-1.4,0-2.5,1.1-2.5,2.5l0,0c0,1.4,1.1,2.5,2.5,2.5l0,0c1.4,0,2.5-1.1,2.5-2.5l0,0   C-224.5,364.6-225.6,363.5-227,363.5z"/></g><text x="-255" y="462" fill="#000000" font-size="5px" font-weight="bold" font-family="'Helvetica Neue', Helvetica, Arial-Unicode, Arial, Sans-serif">Created by Ervin Bolat</text><text x="-255" y="467" fill="#000000" font-size="5px" font-weight="bold" font-family="'Helvetica Neue', Helvetica, Arial-Unicode, Arial, Sans-serif">from the Noun Project</text></svg>