<svg xmlns="http://www.w3.org/2000/svg" data-name="ICON BALCK" viewBox="0 0 32 40" x="0px" y="0px"><title>student</title><path d="M5.58,29a.5.5,0,0,0,.5.5H25.92a.5.5,0,0,0,.5-.5V24.84a7.13,7.13,0,0,0-7.13-7.13H12.71a7.13,7.13,0,0,0-7.13,7.13ZM16,20.51l-2.26-1.8h4.52ZM6.58,24.84a6.09,6.09,0,0,1,5.61-6.09l3.31,2.64v6a.5.5,0,0,0,1,0v-6l3.31-2.64a6.09,6.09,0,0,1,5.61,6.09V28.5H6.58ZM9.85,10.43a6.15,6.15,0,0,0,12.3,0V3.5h3.51a.5.5,0,0,0,0-1H6.34a.5.5,0,0,0,0,1H7.7v7.73a.5.5,0,0,0,1,0V3.5H9.85ZM16,15.58a5.16,5.16,0,0,1-5.15-5.15V8h10.3v2.45A5.16,5.16,0,0,1,16,15.58ZM21.15,3.5V7H10.85V3.5Zm.77,20.39a.51.51,0,0,1-.5.5H19.81a.51.51,0,0,1-.5-.5.5.5,0,0,1,.5-.5h1.61A.5.5,0,0,1,21.92,23.89Zm-9.23,0a.51.51,0,0,1-.5.5H10.58a.51.51,0,0,1-.5-.5.5.5,0,0,1,.5-.5h1.61A.5.5,0,0,1,12.69,23.89Z"/><text x="0" y="47" fill="#000000" font-size="5px" font-weight="bold" font-family="'Helvetica Neue', Helvetica, Arial-Unicode, Arial, Sans-serif">Created by Philipp Petzka</text><text x="0" y="52" fill="#000000" font-size="5px" font-weight="bold" font-family="'Helvetica Neue', Helvetica, Arial-Unicode, Arial, Sans-serif">from the Noun Project</text></svg>