<svg xmlns="http://www.w3.org/2000/svg" xmlns:xlink="http://www.w3.org/1999/xlink" version="1.1" x="0px" y="0px" viewBox="0 0 64 80" style="enable-background:new 0 0 64 64;" xml:space="preserve"><path d="M62,31h-3v-1c0-0.553-0.447-1-1-1h-4c-0.553,0-1,0.447-1,1v6h-4.895l0.89-8.9c0.021-0.207-0.023-0.415-0.127-0.596l-4-7  c-0.127-0.223-0.335-0.388-0.581-0.462L35,16.256v-2.068c1.79-1.039,3-2.973,3-5.188V7c0-3.309-2.691-6-6-6s-6,2.691-6,6v2  c0,2.215,1.21,4.149,3,5.188v2.068l-9.287,2.786c-0.246,0.074-0.454,0.239-0.581,0.462l-4,7c-0.104,0.181-0.147,0.389-0.127,0.596  l0.89,8.9H11v-6c0-0.553-0.447-1-1-1H6c-0.553,0-1,0.447-1,1v1H2c-0.553,0-1,0.447-1,1v14c0,0.553,0.447,1,1,1h3v1  c0,0.553,0.447,1,1,1h4c0.553,0,1-0.447,1-1v-6h13.196l-4.044,6.47c-0.042,0.067-0.076,0.139-0.101,0.214l-3,9  C17.018,57.786,17,57.893,17,58v5h2v-4.838l0.633-1.898L24,57.72V63h2v-5.808l1.879-4.698L30.5,49h3l2.621,3.494L38,57.192V63h2  v-5.28l4.367-1.456L45,58.162V63h2v-5c0-0.107-0.018-0.214-0.052-0.316l-3-9c-0.024-0.075-0.059-0.146-0.101-0.214L39.804,42H53v6  c0,0.553,0.447,1,1,1h4c0.553,0,1-0.447,1-1v-1h3c0.553,0,1-0.447,1-1V32C63,31.447,62.553,31,62,31z M3,45V33h2v12H3z M9,47H7v-1  V32v-1h2V47z M28,7c0-2.206,1.794-4,4-4s4,1.794,4,4v2c0,2.206-1.794,4-4,4s-4-1.794-4-4V7z M17.026,27.219l3.644-6.376l9.617-2.885  C30.71,17.831,31,17.441,31,17v-2.09c0.326,0.055,0.659,0.09,1,0.09s0.674-0.035,1-0.09V17c0,0.441,0.29,0.831,0.713,0.958  l9.617,2.885l3.644,6.376L46.095,36H43v-9c0-0.266-0.105-0.52-0.293-0.707l-4-4l-1.414,1.414L39.586,26l-1,1H33v2h4v7H27v-7h4v-2  h-5.586l-1-1l2.293-2.293l-1.414-1.414l-4,4C21.105,26.48,21,26.734,21,27v9h-3.095L17.026,27.219z M39.707,28.707L41,27.414V36h-2  v-7C39.266,29,39.52,28.895,39.707,28.707z M23,27.414l1.293,1.293C24.48,28.895,24.734,29,25,29v7h-2V27.414z M42.089,49.429  l1.646,4.939l-4.157,1.386l-1.65-4.125c-0.033-0.082-0.076-0.158-0.129-0.229l-3-4C34.611,47.148,34.314,47,34,47h-4  c-0.314,0-0.611,0.148-0.8,0.4l-3,4c-0.053,0.07-0.096,0.146-0.129,0.229l-1.65,4.125l-4.157-1.386l1.646-4.939L26.554,42h10.892  L42.089,49.429z M11,40v-2h42v2H11z M57,47h-2V31h2v1v14V47z M61,45h-2V33h2V45z"/><text x="0" y="79" fill="#000000" font-size="5px" font-weight="bold" font-family="'Helvetica Neue', Helvetica, Arial-Unicode, Arial, Sans-serif">Created by Template</text><text x="0" y="84" fill="#000000" font-size="5px" font-weight="bold" font-family="'Helvetica Neue', Helvetica, Arial-Unicode, Arial, Sans-serif">from the Noun Project</text></svg>