<svg xmlns="http://www.w3.org/2000/svg" xmlns:xlink="http://www.w3.org/1999/xlink" version="1.1" x="0px" y="0px" viewBox="0 0 60 75" enable-background="new 0 0 60 60" xml:space="preserve"><path d="M33.8098145,6.0070801c-3.2128906-0.1376953-6.1977539,1.6269531-7.8295898,4.546875  c-0.5209961-0.1269531-1.0483398-0.2021484-1.5756836-0.2246094c-4.0307617-0.1738281-7.5942383,2.6220703-8.7148438,6.71875  c-3.8461914,0.9160156-6.675293,4.5097656-6.828125,8.8037109c-0.184082,5.171875,3.5805664,9.5439453,8.4345703,9.7460938  h0.3510742v3.8115234l-4.050293,3.0410156c-0.2514648,0.1894531-0.3994141,0.4853516-0.3994141,0.7998047v4.2503662  c-1.3467407,0.428833-2.331543,1.677002-2.331543,3.1646729c0,1.8388672,1.4960938,3.3349609,3.3349609,3.3349609  s3.3349609-1.4960938,3.3349609-3.3349609c0-1.4902344-0.9881592-2.7399902-2.3383789-3.166748v-3.748291l4.050293-3.0410156  c0.2514648-0.1894531,0.3994141-0.4853516,0.3994141-0.7998047v-4.3115234l2.0849609-0.0001221l2.0053711,4.7637939v3.2226563  c-1.3505249,0.4267578-2.3388672,1.6763916-2.3388672,3.1660156c0,1.8388672,1.4960938,3.3349609,3.3349609,3.3349609  s3.3349609-1.4960938,3.3349609-3.3349609c0-1.4868164-0.9845581-2.7344971-2.3310547-3.1635742v-3.4272461  c0-0.1328125-0.0268555-0.265625-0.078125-0.3876953l-1.7570801-4.1740723l11.9345703-0.0004883l-3.6379395,6.0895996  c-0.234375,0.3925781-0.1728516,0.8935547,0.1494141,1.2177734l1.9189453,1.9287109v2.6660156  c-1.348999,0.4276123-2.3359375,1.6767578-2.3359375,3.1660156c0,1.8388672,1.4960938,3.3349609,3.3349609,3.3349609  s3.3349609-1.4960938,3.3349609-3.3349609c0-1.4885254-0.9859619-2.7373047-2.3339844-3.1654053V44.420166  c0-0.2646484-0.1044922-0.5175781-0.2910156-0.7050781l-1.6616211-1.6699219l3.8516846-6.447998l3.0977783-0.0001221  l3.5334473,4.7352295v3.2536621c-1.3477173,0.4282227-2.3334961,1.6767578-2.3334961,3.1643066  c0,1.8388672,1.4960938,3.3349609,3.3349609,3.3349609s3.3349609-1.4960938,3.3349609-3.3349609  c0-1.4887695-0.9871826-2.737793-2.3364258-3.1652832v-3.5847168c0-0.2158203-0.0698242-0.4257813-0.1987305-0.5976563  l-2.9122314-3.9022217c1.5449829-0.2474365,3.0161743-0.9642334,4.2476807-2.1036377  c1.9375-1.7929688,3.1054688-4.4082031,3.2041016-7.1738281c0.1835938-5.1728516-3.581543-9.5449219-8.3925781-9.7460938  c-0.0004883,0-0.0004883,0-0.0004883,0c-0.1972656-0.0097656-0.3964844-0.0087891-0.5966797-0.0009766  c0.0268555-0.2431641,0.0449219-0.484375,0.0537109-0.7236328C42.3859863,10.5803223,38.6208496,6.208252,33.8098145,6.0070801z   M14.2009277,52.0002441c-0.7363281,0-1.3349609-0.5986328-1.3349609-1.3349609s0.5986328-1.3359375,1.3349609-1.3359375  s1.3349609,0.5996094,1.3349609,1.3359375S14.9372559,52.0002441,14.2009277,52.0002441z M24.7336426,48.0852051  c-0.7363281,0-1.3349609-0.5986328-1.3349609-1.3349609c0-0.732666,0.5934448-1.3269043,1.3248291-1.3327637  c0.0049438,0,0.0090332,0.0026855,0.0140381,0.0026855c0.0036011,0,0.0065308-0.0019531,0.0101318-0.0019531  c0.7294922,0.0080566,1.3209229,0.6008301,1.3209229,1.3320313C26.0686035,47.4865723,25.4699707,48.0852051,24.7336426,48.0852051z   M35.2663574,52.0002441c-0.7363281,0-1.3349609-0.5986328-1.3349609-1.3349609s0.5986328-1.3359375,1.3349609-1.3359375  s1.3349609,0.5996094,1.3349609,1.3359375S36.0026855,52.0002441,35.2663574,52.0002441z M45.7990723,48.0852051  c-0.7363281,0-1.3349609-0.5986328-1.3349609-1.3349609c0-0.7316895,0.59198-1.3249512,1.3221436-1.3322754  c0.0040283,0,0.0073242,0.0021973,0.0113525,0.0021973c0.0045166,0,0.0083008-0.0024414,0.0128174-0.0024414  c0.7307739,0.0064697,1.3236084,0.6003418,1.3236084,1.3325195C47.1340332,47.4865723,46.5354004,48.0852051,45.7990723,48.0852051z   M42.6618652,18.4748535c3.7167969,0.1552734,6.6225586,3.5996094,6.4775391,7.6777344  c-0.0795898,2.2363281-1.0141602,4.3427734-2.5634766,5.7763672c-1.2514648,1.1572266-2.7358398,1.7441406-4.3544922,1.6689453  L17.3381348,33.598877c-3.7172852-0.1552734-6.6230469-3.5996094-6.4775391-7.6767578  c0.1269531-3.5800781,2.5673828-6.5361328,5.8027344-7.0283203c0.4150391-0.0625,0.7460938-0.3779297,0.8295898-0.7900391  c0.706543-3.4833984,3.5869141-5.9326172,6.8276367-5.7763672c0.6162109,0.0263672,1.2348633,0.1494141,1.8393555,0.3662109  c0.4912109,0.1777344,1.0385742-0.0566406,1.2514648-0.5351563c1.1713867-2.6347656,3.6625977-4.2705078,6.3144531-4.1533203  c3.7167969,0.1552734,6.6225586,3.5996094,6.4775391,7.6757813c-0.0200195,0.5556641-0.1044922,1.1298828-0.2509766,1.7041016  c-0.0849609,0.3349609,0.0083008,0.6894531,0.2475586,0.9394531c0.2382813,0.2480469,0.5854492,0.3564453,0.9277344,0.2861328  C41.6525879,18.5002441,42.1696777,18.458252,42.6618652,18.4748535z"/><text x="0" y="75" fill="#000000" font-size="5px" font-weight="bold" font-family="'Helvetica Neue', Helvetica, Arial-Unicode, Arial, Sans-serif">Created by Graphic Tigers</text><text x="0" y="80" fill="#000000" font-size="5px" font-weight="bold" font-family="'Helvetica Neue', Helvetica, Arial-Unicode, Arial, Sans-serif">from the Noun Project</text></svg>