<svg xmlns="http://www.w3.org/2000/svg" xmlns:xlink="http://www.w3.org/1999/xlink" version="1.0" x="0px" y="0px" viewBox="0 0 128 160" style="enable-background:new 0 0 128 128;" xml:space="preserve"><g><path d="M39.5,103.2c9.3,0,17.8-3.2,24.5-8.6c6.7,5.4,15.2,8.6,24.5,8.6c21.6,0,39.2-17.6,39.2-39.2s-17.6-39.2-39.2-39.2   c-9.3,0-17.8,3.2-24.5,8.6c-6.7-5.4-15.2-8.6-24.5-8.6c-0.5,0-1,0-1.5,0c-0.3-0.1-0.7,0-1,0C16.6,26.2,0.3,43.2,0.3,64   C0.3,85.6,17.9,103.2,39.5,103.2z M88.5,29.8c18.9,0,34.2,15.3,34.2,34.2s-15.3,34.2-34.2,34.2c-7.8,0-15-2.6-20.7-7   c6.8-7.1,11-16.6,11-27.2s-4.2-20.1-11-27.2C73.5,32.4,80.7,29.8,88.5,29.8z M61.2,43.4c0.4-0.5,0.8-1,1.2-1.5   c0.4,0.3,0.9,0.4,1.3,0.4c0.6,0,1.2-0.2,1.6-0.6c2.8,3.3,5.1,7.1,6.5,11.3c-0.1-0.2-0.3-0.5-0.5-0.7c-1-1-2.6-1-3.5,0l-0.4,0.4   c-1,1-1,2.6,0,3.5c0.5,0.5,1.1,0.7,1.8,0.7s1.3-0.2,1.8-0.7l0.4-0.4c0.6-0.6,0.8-1.4,0.7-2.2c1.1,3.3,1.6,6.8,1.6,10.4   c0,0.5,0,1,0,1.6c-0.4,0.1-0.7,0.3-1,0.6l-0.4,0.4c-1,1-1,2.6,0,3.5c0.2,0.2,0.5,0.4,0.8,0.5c-1.3,6.7-4.5,12.6-9.1,17.3   c-1.1-1.1-2.1-2.3-3-3.5c0.2-0.8,0-1.7-0.7-2.3c-0.4-0.4-0.8-0.6-1.3-0.7c-1.7-3-3.1-6.2-3.9-9.6c0.3-0.9,0.2-1.9-0.5-2.6   c-0.3-1.7-0.4-3.4-0.4-5.2c0-5.9,1.5-11.4,4.1-16.3c0.6,0,1.2-0.3,1.7-0.7l0.7-0.7C61.5,45.5,61.7,44.3,61.2,43.4z M11.5,71.8   c-1-1-2.6-1-3.5,0l-0.4,0.4c-0.6,0.6-0.8,1.4-0.7,2.2C5.9,71.1,5.3,67.6,5.3,64c0-0.6,0-1.2,0-1.8c0.6,0,1.2-0.3,1.6-0.7l0.4-0.4   c1-1,1-2.6,0-3.5C7,57.3,6.5,57,6,56.9C8.7,44.4,18.1,34.4,30.3,31l-0.2,0.2c-1,1-1,2.6,0,3.5c0.5,0.5,1.1,0.7,1.8,0.7   s1.3-0.2,1.8-0.7l0.7-0.7c1-1,1-2.6,0-3.5c-0.1-0.1-0.3-0.2-0.4-0.3c0.8-0.1,1.6-0.2,2.4-0.3c0.3,0.1,0.6,0.2,1,0.2   c0.4,0,0.8-0.1,1.2-0.3c0.3,0,0.7,0,1,0c3.6,0,7.1,0.6,10.4,1.6c-0.8-0.1-1.6,0.1-2.2,0.7l-0.4,0.4c-1,1-1,2.6,0,3.5   c0.5,0.5,1.1,0.7,1.8,0.7s1.3-0.2,1.8-0.7l0.4-0.4c1-1,1-2.6,0-3.5c-0.2-0.2-0.4-0.4-0.7-0.5c3.5,1.2,6.8,3,9.7,5.2   c-3,3.1-5.5,6.8-7.4,10.8c-0.4,0.1-0.8,0.3-1.1,0.6l-0.7,0.7c-1,1-1,2.5,0,3.5c-0.2,0.7-0.4,1.5-0.6,2.2c-0.1-0.3-0.3-0.7-0.6-0.9   c-1-1-2.6-1-3.5,0l-0.7,0.7c-1,1-1,2.6,0,3.5c0.5,0.5,1.1,0.7,1.8,0.7c0.6,0,1.3-0.2,1.8-0.7l0.7-0.7c0,0,0,0,0.1-0.1   c-0.4,2.2-0.6,4.5-0.6,6.8c0,2.2,0.2,4.4,0.6,6.6c-0.4,0.9-0.2,2,0.5,2.8c0,0,0.1,0,0.1,0.1c1,4.2,2.8,8.2,5.1,11.8   c0.1,0.4,0.3,0.8,0.6,1.1c0.1,0.1,0.1,0.1,0.2,0.2c1.2,1.7,2.5,3.3,3.9,4.7c-3.3,2.5-7.1,4.5-11.2,5.7l0.4-0.4c1-1,1-2.6,0-3.5   s-2.6-1-3.5,0l-0.7,0.7c-1,1-1,2.6,0,3.5c0.2,0.2,0.5,0.4,0.7,0.5c-0.8,0.1-1.5,0.3-2.3,0.4c-0.9-0.6-2.2-0.5-3,0.2   c-0.4,0-0.8,0-1.2,0c-3.6,0-7.1-0.6-10.4-1.6c0.1,0,0.3,0,0.4,0c0.6,0,1.3-0.2,1.8-0.7l0.4-0.4c1-1,1-2.6,0-3.5s-2.6-1-3.5,0   l-0.4,0.4c-1,1-1,2.6,0,3.5c0.2,0.2,0.4,0.4,0.7,0.5c-4.2-1.4-8-3.7-11.3-6.5c0.8-1,0.8-2.5-0.1-3.4s-2.4-1-3.4-0.1   c-2.8-3.3-5.1-7.1-6.5-11.3c0.1,0.2,0.3,0.5,0.5,0.7c0.5,0.5,1.1,0.7,1.8,0.7s1.3-0.2,1.8-0.7l0.4-0.4   C12.5,74.4,12.5,72.8,11.5,71.8z"/><path d="M40.8,59.2l-0.7,0.7c-1,1-1,2.6,0,3.5c0.5,0.5,1.1,0.7,1.8,0.7c0.6,0,1.3-0.2,1.8-0.7l0.7-0.7c1-1,1-2.6,0-3.5   C43.4,58.2,41.8,58.2,40.8,59.2z"/><path d="M19,81l-0.7,0.7c-1,1-1,2.6,0,3.5c0.5,0.5,1.1,0.7,1.8,0.7s1.3-0.2,1.8-0.7l0.7-0.7c1-1,1-2.6,0-3.5S19.9,80,19,81z"/><path d="M24.4,75.5l-0.7,0.7c-1,1-1,2.6,0,3.5c0.5,0.5,1.1,0.7,1.8,0.7s1.3-0.2,1.8-0.7l0.7-0.7c1-1,1-2.6,0-3.5   S25.4,74.6,24.4,75.5z"/><path d="M36.4,69.6c0.6,0,1.3-0.2,1.8-0.7l0.7-0.7c1-1,1-2.6,0-3.5s-2.6-1-3.5,0l-0.7,0.7c-1,1-1,2.6,0,3.5   C35.2,69.3,35.8,69.6,36.4,69.6z"/><path d="M33.4,73.6c1-1,1-2.6,0-3.5c-1-1-2.6-1-3.5,0l-0.7,0.7c-1,1-1,2.6,0,3.5c0.5,0.5,1.1,0.7,1.8,0.7c0.6,0,1.3-0.2,1.8-0.7   L33.4,73.6z"/><path d="M63.6,62.6c0.6,0,1.3-0.2,1.8-0.7l0.7-0.7c1-1,1-2.6,0-3.5s-2.6-1-3.5,0l-0.7,0.7c-1,1-1,2.6,0,3.5   C62.3,62.4,62.9,62.6,63.6,62.6z"/><path d="M56.8,63.4l-0.7,0.7c-1,1-1,2.6,0,3.5c0.5,0.5,1.1,0.7,1.8,0.7s1.3-0.2,1.8-0.7l0.7-0.7c1-1,1-2.6,0-3.5   S57.8,62.4,56.8,63.4z"/><path d="M44.6,79.1c0.5,0.5,1.1,0.7,1.8,0.7s1.3-0.2,1.8-0.7l0.7-0.7c1-1,1-2.6,0-3.5s-2.6-1-3.5,0l-0.7,0.7   C43.6,76.5,43.6,78.1,44.6,79.1z"/><path d="M33.9,86.3L33.1,87c-1,1-1,2.6,0,3.5c0.5,0.5,1.1,0.7,1.8,0.7s1.3-0.2,1.8-0.7l0.7-0.7c1-1,1-2.6,0-3.5   S34.8,85.3,33.9,86.3z"/><path d="M39.6,80.6l-0.7,0.7c-1,1-1,2.6,0,3.5c0.5,0.5,1.1,0.7,1.8,0.7s1.3-0.2,1.8-0.7l0.7-0.7c1-1,1-2.6,0-3.5   S40.6,79.6,39.6,80.6z"/><path d="M26.2,59.6c0.6,0,1.3-0.2,1.8-0.7l0.7-0.7c1-1,1-2.6,0-3.5s-2.6-1-3.5,0l-0.7,0.7c-1,1-1,2.6,0,3.5   C24.9,59.4,25.6,59.6,26.2,59.6z"/><path d="M20.5,65.4c0.6,0,1.3-0.2,1.8-0.7l0.7-0.7c1-1,1-2.6,0-3.5c-1-1-2.6-1-3.5,0l-0.7,0.7c-1,1-1,2.6,0,3.5   C19.2,65.1,19.8,65.4,20.5,65.4z"/><path d="M43.4,42.5c0.6,0,1.3-0.2,1.8-0.7l0.7-0.7c1-1,1-2.6,0-3.5s-2.6-1-3.5,0l-0.7,0.7c-1,1-1,2.6,0,3.5   C42.1,42.2,42.8,42.5,43.4,42.5z"/><path d="M17.2,66.1c-1-1-2.6-1-3.5,0L13,66.8c-1,1-1,2.6,0,3.5c0.5,0.5,1.1,0.7,1.8,0.7s1.3-0.2,1.8-0.7l0.7-0.7   C18.2,68.7,18.2,67.1,17.2,66.1z"/><path d="M30.2,53.2c0.5,0.5,1.1,0.7,1.8,0.7c0.6,0,1.3-0.2,1.8-0.7l0.7-0.7c1-1,1-2.6,0-3.5c-1-1-2.6-1-3.5,0l-0.7,0.7   C29.2,50.6,29.2,52.2,30.2,53.2z"/><path d="M37.7,48.2c0.6,0,1.3-0.2,1.8-0.7l0.7-0.7c1-1,1-2.6,0-3.5s-2.6-1-3.5,0l-0.7,0.7c-1,1-1,2.6,0,3.5   C36.4,47.9,37,48.2,37.7,48.2z"/><path d="M62.2,76.7l-0.7,0.7c-1,1-1,2.6,0,3.5c0.5,0.5,1.1,0.7,1.8,0.7s1.3-0.2,1.8-0.7l0.7-0.7c1-1,1-2.6,0-3.5   S63.2,75.7,62.2,76.7z"/><path d="M66.9,75.5c0.5,0.5,1.1,0.7,1.8,0.7s1.3-0.2,1.8-0.7l0.7-0.7c1-1,1-2.6,0-3.5s-2.6-1-3.5,0l-0.7,0.7   C66,72.9,66,74.5,66.9,75.5z"/><path d="M52.5,92.4c0.6,0,1.3-0.2,1.8-0.7l0.7-0.7c1-1,1-2.6,0-3.5s-2.6-1-3.5,0l-0.7,0.7c-1,1-1,2.6,0,3.5   C51.2,92.2,51.9,92.4,52.5,92.4z"/><path d="M12.7,52.2c-1-1-2.6-1-3.5,0l-0.7,0.7c-1,1-1,2.6,0,3.5c0.5,0.5,1.1,0.7,1.8,0.7s1.3-0.2,1.8-0.7l0.7-0.7   C13.7,54.8,13.7,53.2,12.7,52.2z"/><path d="M26.5,40.9c0.6,0,1.3-0.2,1.8-0.7l0.7-0.7c1-1,1-2.6,0-3.5s-2.6-1-3.5,0l-0.7,0.7c-1,1-1,2.6,0,3.5   C25.2,40.7,25.8,40.9,26.5,40.9z"/><path d="M15.7,51.8c0.6,0,1.3-0.2,1.8-0.7l0.7-0.7c1-1,1-2.6,0-3.5s-2.6-1-3.5,0l-0.7,0.7c-1,1-1,2.6,0,3.5   C14.4,51.5,15,51.8,15.7,51.8z"/><path d="M21.1,46.3c0.6,0,1.3-0.2,1.8-0.7l0.7-0.7c1-1,1-2.6,0-3.5c-1-1-2.6-1-3.5,0l-0.7,0.7c-1,1-1,2.6,0,3.5   C19.8,46.1,20.4,46.3,21.1,46.3z"/></g><text x="0" y="143" fill="#000000" font-size="5px" font-weight="bold" font-family="'Helvetica Neue', Helvetica, Arial-Unicode, Arial, Sans-serif">Created by SBTS</text><text x="0" y="148" fill="#000000" font-size="5px" font-weight="bold" font-family="'Helvetica Neue', Helvetica, Arial-Unicode, Arial, Sans-serif">from the Noun Project</text></svg>