<svg xmlns="http://www.w3.org/2000/svg" xmlns:xlink="http://www.w3.org/1999/xlink" version="1.1" x="0px" y="0px" viewBox="0 0 512 640" enable-background="new 0 0 512 512" xml:space="preserve"><path d="M93.931,128.678h183.986c4.812,0,7.329-3.774,7.329-7.503c0-3.726-2.518-7.497-7.329-7.497H93.931  c-4.813,0-7.33,3.774-7.33,7.503C86.601,124.906,89.118,128.678,93.931,128.678z"/><path d="M93.931,164.373h183.986c4.812,0,7.329-3.774,7.329-7.503c0-3.726-2.518-7.497-7.329-7.497H93.931  c-4.813,0-7.33,3.774-7.33,7.503C86.601,160.601,89.118,164.373,93.931,164.373z"/><path d="M226.261,365.219H93.931c-4.813,0-7.33,3.775-7.33,7.504c0,3.726,2.518,7.496,7.33,7.496h132.33  c4.813,0,7.33-3.773,7.33-7.502C233.591,368.99,231.073,365.219,226.261,365.219z"/><path d="M464.994,428.457l-55.442-55.443c-2.969-2.968-7.78-2.968-10.75,0l-39.949-39.947c2.098-2.543,4.089-5.192,5.938-7.973  c25.443-38.193,19.283-90.114-12.587-122.516c-7.421-7.299-15.787-13.225-24.745-17.738V62.373c0-4.142-3.357-7.5-7.5-7.5H50.728  c-4.143,0-7.5,3.358-7.5,7.5v369.15c0,4.143,3.357,7.5,7.5,7.5h269.231c4.143,0,7.5-3.357,7.5-7.5v-73.299  c6.065-3.088,11.829-6.799,17.173-11.097c13.343,13.343,26.687,26.685,40.028,40.026c-2.969,2.97-2.969,7.781,0,10.75l55.441,55.442  c5.748,5.748,15.979,4.835,22.854-2.038C469.829,444.437,470.742,434.204,464.994,428.457z M312.459,424.023H58.228V69.873h254.231  v108.909c-22.736-7.087-47.803-5.889-70.449,4.372c-1.333,0.604-2.643,1.248-3.939,1.913H93.931c-4.813,0-7.33,3.774-7.33,7.503  c0,3.726,2.518,7.497,7.33,7.497h122.921c-6.746,6.331-12.562,13.623-17.29,21.565H93.931c-4.813,0-7.33,3.774-7.33,7.503  c0,3.726,2.518,7.497,7.33,7.497h98.299c-2.579,6.646-4.438,13.57-5.512,20.634H93.931c-4.813,0-7.33,3.773-7.33,7.502  c0,3.728,2.518,7.498,7.33,7.498h91.723c0.029,2.732,0.169,5.471,0.447,8.209c0.43,4.23,1.146,8.396,2.101,12.484H93.931  c-4.813,0-7.33,3.775-7.33,7.504c0,3.725,2.518,7.496,7.33,7.496h99.055c3.001,7.352,6.85,14.303,11.453,20.695H93.931  c-4.813,0-7.33,3.772-7.33,7.502c0,3.727,2.518,7.498,7.33,7.498h123.805c11.594,10.68,25.791,18.615,41.722,22.555  c17.849,4.412,36.16,3.535,53.002-1.82L312.459,424.023L312.459,424.023z M274.991,348.75c-32.205-3.02-59.442-27.633-67.133-58.742  c-7.67-31.023,5.218-64.984,31.923-82.748c30.814-20.498,71.934-16.455,98.279,9.46c22.343,22.714,29.491,58.063,15.709,87.228  C339.528,334.086,308.121,351.855,274.991,348.75z"/><text x="0" y="527" fill="#000000" font-size="5px" font-weight="bold" font-family="'Helvetica Neue', Helvetica, Arial-Unicode, Arial, Sans-serif">Created by Chanut is Industries</text><text x="0" y="532" fill="#000000" font-size="5px" font-weight="bold" font-family="'Helvetica Neue', Helvetica, Arial-Unicode, Arial, Sans-serif">from the Noun Project</text></svg>