<svg xmlns="http://www.w3.org/2000/svg" xmlns:xlink="http://www.w3.org/1999/xlink" version="1.0" x="0px" y="0px" viewBox="0 0 100 125" enable-background="new 0 0 100 100" xml:space="preserve"><g><g><path d="M77.9,43.7c-1.8-1.2-7.7-3-9.4-3.5c0-0.6,0.3-1.8,0.6-2.9c0.5-0.9,4.1-7.4,4.1-12.5c0-5.6-0.3-11.4-3.5-13.8    c-1.7-1.2-3.9-1.4-6.7-0.6c-5.3,1.6-8.4,6.8-8.4,14.4c0,5.2,1.7,10.1,4.3,12.8c0,0.5,0,1.3-0.1,1.8c-0.8,0-2.5-0.1-3.1-0.3    c-1.2-0.5-2.6-1.3-4-2.1c-3.9-2.2-9-4.9-14.6-5.6c1.4-2.8,3.1-6.8,3.1-10.6c0-7.4-0.7-13.6-8.6-14.9c-2.1-0.3-4.3,0.4-6.2,2    c-3.2,2.8-5.3,7.7-5.3,12.9c0,4.6,2.3,9.2,4,12c-5,1.5-9.1,4.3-13.7,11.7c-2.7,4.3-3.3,7.8-1.4,9c1,0.7,2.5,0.4,4.1-0.7    c-3.2,16.2,2.8,39.4,3.2,40.6c0.1,0.4,0.5,0.7,1,0.7c0.1,0,0.2,0,0.3,0c0.5-0.1,0.9-0.7,0.7-1.2c-0.1-0.3-9.1-34.6,0.1-48.3    c2.1-3.1,4.9-4.9,8.6-5.3l0.6-0.1l0.2-0.5c0.1-0.2,0.2-0.6,0.2-3.7l0-0.3l-0.2-0.3c-0.1-0.1-5.6-6.9-5.6-13.6    c0-4.6,1.7-9,4.5-11.4c1.5-1.3,3.1-1.8,4.6-1.6c5.9,0.9,6.9,4.9,6.9,13c0,6-4.8,13-4.9,13.1l-0.2,0.3l0,0.4    c0.4,3.8,0.9,4.3,1.1,4.5l0.1,0.1l0.2,0.1c10.7,5.2,12.9,19.4,13.1,42.1c0,0.5,0.5,1,1,1c0,0,0,0,0,0c0.6,0,1-0.5,1-1    c-0.1-9.5-0.5-17.5-1.8-24.1c-0.4-4.6-1.2-8.8-2.6-11c-0.6-0.9-1.4-1.6-2.4-2.3c-1.9-2.7-4.2-4.8-7.2-6.3    c-0.2-0.5-0.4-1.8-0.5-2.9c0.2-0.3,0.5-0.8,0.9-1.5c5.5,0.5,10.5,3.2,14.7,5.5c1.5,0.8,2.9,1.6,4.2,2.2c0.8,0.3,4.7,1,5.4,0    c0.9-1.2,0.6-3.9,0.5-4.1l-0.1-0.2l-0.2-0.2c-2.5-2.3-4-6.8-4-11.6c0-6.6,2.5-11.2,6.9-12.5c2.2-0.7,3.8-0.6,4.9,0.3    c2.5,1.9,2.7,7.3,2.7,12.2c0,4.8-3.9,11.5-3.9,11.6l-0.1,0.2c-0.5,1.7-1.1,3.8-0.6,4.8c0.2,0.3,0.5,0.6,0.8,0.7    c1.6,0.4,7.7,2.3,9.2,3.4c3.1,2.1,4.7,22.6,4.7,40.8c0,0.6,0.4,1,1,1s1-0.4,1-1C83.5,79.7,83.2,47.3,77.9,43.7z M26,37.3    c-3.9,0.7-7,2.7-9.2,6.1c-1.1,1.7-2,3.7-2.7,5.8c-2.1,2.3-3.5,2.7-3.8,2.5c-0.4-0.2-0.6-2.2,2-6.3c4.5-7.1,8.2-9.7,13.2-11    c0.2,0.3,0.4,0.6,0.6,0.8C26,36,26,36.8,26,37.3z"/><path d="M35.3,25.7c0.1-0.1,0.1-0.2,0.1-0.4L34.1,16l3-1.9c0.2-0.1,0.3-0.5,0.2-0.7c-0.1-0.2-0.5-0.3-0.7-0.2l-3.3,2    c-0.2,0.1-0.3,0.3-0.2,0.5l1.3,9L31.5,25c-0.3,0-0.5,0.3-0.5,0.5c0,0.3,0.2,0.5,0.5,0.5c0,0,0,0,0,0l3.4-0.2    C35.1,25.8,35.2,25.8,35.3,25.7z"/><path d="M63.2,29.3l-2.6-0.6l1.1-8.2c0-0.2,0-0.3-0.2-0.4c-0.1-0.1-0.3-0.1-0.5-0.1l-2.5,0.7c-0.3,0.1-0.4,0.4-0.3,0.6    c0.1,0.3,0.4,0.4,0.6,0.3l1.8-0.5l-1,7.9c0,0.3,0.1,0.5,0.4,0.6l3.1,0.7c0,0,0.1,0,0.1,0c0.2,0,0.4-0.2,0.5-0.4    C63.6,29.6,63.4,29.4,63.2,29.3z"/></g></g><text x="0" y="115" fill="#000000" font-size="5px" font-weight="bold" font-family="'Helvetica Neue', Helvetica, Arial-Unicode, Arial, Sans-serif">Created by Sven Gabriel</text><text x="0" y="120" fill="#000000" font-size="5px" font-weight="bold" font-family="'Helvetica Neue', Helvetica, Arial-Unicode, Arial, Sans-serif">from the Noun Project</text></svg>