<svg xmlns="http://www.w3.org/2000/svg" xmlns:xlink="http://www.w3.org/1999/xlink" version="1.1" x="0px" y="0px" viewBox="0 0 64 80" enable-background="new 0 0 64 64" xml:space="preserve"><g><path fill-rule="evenodd" clip-rule="evenodd" d="M26.699,23.193c-1.168-0.43-1.718-0.43-2.885,0   C23.446,21.315,26.931,21.679,26.699,23.193z"/><path fill-rule="evenodd" clip-rule="evenodd" d="M18.042,22.781c-0.361,2.026-1.943-1.369-2.472,0.824   C13.992,22.534,17.469,21.806,18.042,22.781z"/><path fill-rule="evenodd" clip-rule="evenodd" d="M17.631,24.018c0.474,0.486,0.467,1.457,0.412,2.473c-0.687,0-1.374,0-2.061,0   c0.478-0.159,0.478-2.002,0-0.824C14.952,25.134,16.418,23.668,17.631,24.018z"/><path fill-rule="evenodd" clip-rule="evenodd" d="M31.232,28.14c1.864-0.012,0.131,1.908,0,2.473   C29.981,30.104,31.679,29.196,31.232,28.14z"/><path fill-rule="evenodd" clip-rule="evenodd" d="M22.577,29.788c-0.058,1.179-1.72,0.754-2.885,0.825   C19.361,29.046,21.641,30.088,22.577,29.788z"/><path fill-rule="evenodd" clip-rule="evenodd" d="M16.394,30.613c1.951,2.62,7.519,1.198,9.481,0.825   C24.23,36.09,16.155,34.836,16.394,30.613z M23.401,32.673c-1.512,0-3.023,0-4.534,0C18.786,34.875,23.245,33.992,23.401,32.673z"/><path fill-rule="evenodd" clip-rule="evenodd" d="M15.157,64c-0.274,0-0.549,0-0.825,0c0.272-3.439-0.545-7.965,0.413-10.717   C16.787,55.848,14.505,60.188,15.157,64z"/><path fill-rule="evenodd" clip-rule="evenodd" d="M28.759,64c-0.274,0-0.55,0-0.824,0c0.339-3.646-0.324-8.295,1.237-10.717   C29.217,55.396,29.4,61.199,28.759,64z"/><path fill-rule="evenodd" clip-rule="evenodd" d="M23.813,26.079c-0.094-1.468,0.593-2.155,2.061-2.061   c0.474,0.486,0.467,1.457,0.412,2.473C25.27,26.545,24.3,26.553,23.813,26.079z"/><path fill-rule="evenodd" clip-rule="evenodd" d="M13.921,64c-4.534,0-9.068,0-13.602,0C3.437,53.791,2.063,39.09,15.57,39.268   c-0.017-2.045-1.599-2.521-2.886-3.297c-0.658,0.305,0.094,2.018-1.237,1.648c-1.24-2.455-1.316-1.656-3.297-2.473   c0.69-2.355-0.482-2.412,0-4.122c-2.261-1.586-2.468-5.227-4.946-6.595c0.528-0.708,1.962-0.511,2.061-1.648   c-2.038,0.251-1.9-1.673-2.061-3.298c0.468-1.317,2.514-1.059,3.297-2.061c0.698-2.361-1.435-4.039-0.412-5.358   c1.536-0.436,1.331,0.868,2.061,1.236c3.822-3.459,4.085-10.479,11.128-10.716c1.531,2.421,5.865,1.849,9.069,2.061   c1.616,1.957,3.114,4.03,5.769,4.946c-0.392,3.351,3.582,4.714,2.475,8.655c1.052,0.445,1.443-1.774,2.061-0.412   c-1.439,5.261-4.262,7.199-2.061,13.602c-0.767,1.491-2.555-0.184-2.886,1.236c0.494,0.926-0.801,3.583-2.062,4.122   c-1.941,0.438,0.834-1.545-1.236-1.236c-0.462-0.061-4.064,2.09-3.297,3.297c6.087,1.605,13.466,1.924,17.724,5.359   c0.271-4.812,3.083-7.082,2.473-12.777c-0.717-1.57-2.716-4.26-0.412-5.359c2.235-0.45,2.592,0.981,4.122,1.236   c0.608-1.727,0.985-3.686,2.472-4.534c2.579,1.561,2.06,0.462,4.535-0.413c3.064,1.749,3.495,4.848,4.945,7.419   c-0.23,3.899-4.743,5.728-6.182,9.479c-2.14,5.582-0.914,12.596-6.184,15.662c-6.618,1.58-10.986-2.035-16.487-2.883   c0.355,4.041,0.685,8.109,1.236,11.953c-1.923,0-3.846,0-5.77,0c0.206-8.037,0.532-15.955,1.648-23.082   c-2.345,2.326-0.404,8.938-2.473,11.539c-0.835-2.904,1.248-8.635,0.413-11.539C28.067,48.967,27.339,54.893,27.523,64   c-3.984,0-7.969,0-11.953,0c0.878-4.555,0.375-13.658-0.413-18.549c-0.271-1.68-0.586-4.127-1.648-4.533   c0.673,3.314,2.094,8.066,1.236,11.539c-1.414-3.395-0.804-8.814-2.474-11.951C12.862,46.664,14.472,55.33,13.921,64z    M33.294,31.025c2.71-3.468,0.054-8.325,3.709-11.542c-0.961-0.138-1.775-0.422-2.061-1.236c-0.307-1.269,1.131-0.792,0.824-2.061   c-2.582-0.99-3.008-4.137-4.122-6.595C27.149,9.828,26.118,6.6,22.989,5.47c0.177,1.825-0.687,2.61-2.061,2.885   c-1.302-1.502-1.764-0.936-3.71-0.412c-0.254-1.119,0.523-3.271-0.412-3.71c-0.773,1.837-3.048,2.173-4.122,3.71   c-0.441,1.54,1.023,1.175,0.825,2.473c-2.737,0.562-3.051,3.545-5.771,4.122c1.881,2.759-2.977,5.808-2.885,5.359   c0.55,0,1.099,0,1.648,0c0.819,1.552,0.267,3.333-0.412,4.533c1.71,1.039,0.637,4.859,2.885,5.358   c-0.615-1.865,0.173-2.939,2.473-2.885c-0.03-4.469,0.673-8.837,1.649-11.129c2.011,1.322,1.594-1.14,3.297-1.237   c1.297,1.151,2.182,0.508,3.71,0c0.346,0.892,1.068,1.406,0.825,2.885c1.728,0.491,0.736-1.737,1.649-2.061   c1.421,1.241,1.002,0.951,2.885,0.412c3.268,1.049,5.865,4.706,5.359,10.717c0.648,0.725,2.207,0.541,2.885,1.237   C34.335,29.35,32.491,30.591,33.294,31.025z M18.455,5.882c1.086,0.125,1.354-0.57,1.237-1.649   C18.606,4.109,18.339,4.804,18.455,5.882z M13.509,16.598c-0.505,3.617-1.633,6.611-1.237,11.129c-0.819,0.687-0.524-0.038-1.648,0   c-0.247,0.733,1.208,1.711,0,2.061c-0.712-0.25,0.032-1.955-0.825-2.061c-0.603,2.801,1.416,2.981,2.473,4.122   c1.676,8.943,17.089,8,18.137-0.825c1.769,0.907,2.625-1.086,2.472-3.297c-4.96,0.701-1.951-6.567-4.122-8.656   c-1.507,0.174-2.723-1.053-3.709-2.474c-0.026,2.778-1.302-0.23-2.473,0c-0.012,1.637-1.605,1.693-2.885,2.061   c-0.202-1.3,0.743-1.455,0.412-2.885c-1.233,0.025-2.398,0.324-4.533-0.412C15.82,17.241,14.648,17.056,13.509,16.598z    M53.489,28.964c-0.59-2.119,1.688-3.512,0.414-4.946c-1.147,1.876-2.268,3.778-2.474,6.595c0.972,0.557,2.732,2.465,1.649,3.709   c-0.221-2.115-1.881-2.792-3.299-3.709c0.211-2.271-0.676-3.445-2.885-3.298c1.873,4.722,1.281,11.908,9.069,10.718   c1.842-2.967,4.895-4.725,5.77-8.656c-1.799,0.262-1.393,2.73-3.297,2.885c-0.142-2.89,1.989-3.504,2.06-6.183   c-2.525,0.222-1.634,3.861-4.532,3.709c0.171-2.12,3.303-4.89,1.646-6.183C56.045,25.198,55.897,28.211,53.489,28.964z    M11.86,34.322c0.419-2.48-1.969-2.153-2.473-3.709c0,0.549,0,1.1,0,1.649C11.612,31.547,9.784,34.887,11.86,34.322z M30.821,31.85   c0.247,0.733-1.209,1.711,0,2.061c-0.411-1.538,2.995-1.364,1.649-2.473C32.063,32.104,31.369,32.386,30.821,31.85z M16.807,38.443   c0.626,3.633,1.494,7.025,4.946,7.832c1.871-1.555,4.717-6.1,3.297-8.242C23.016,39.855,19.687,38.861,16.807,38.443z"/></g><text x="0" y="79" fill="#000000" font-size="5px" font-weight="bold" font-family="'Helvetica Neue', Helvetica, Arial-Unicode, Arial, Sans-serif">Created by Bjoern Gottschall</text><text x="0" y="84" fill="#000000" font-size="5px" font-weight="bold" font-family="'Helvetica Neue', Helvetica, Arial-Unicode, Arial, Sans-serif">from the Noun Project</text></svg>